<?xml version="1.0" encoding="UTF-8"?><svg id="Layer_1" xmlns="http://www.w3.org/2000/svg" viewBox="0 0 1000 500"><defs><style>.cls-1{font-family:NeuethingSans-Regular, 'Neuething Sans';font-size:146.7px;}.cls-1,.cls-2{fill:#006838;}.cls-3{letter-spacing:-.12em;}</style></defs><text class="cls-1" transform="translate(-981.61 194.89)"><tspan class="cls-3" x="0" y="0">T</tspan><tspan x="72.47" y="0" xml:space="preserve">ell the story    </tspan></text><g><path class="cls-2" d="M51.06,194.55c-3.12-2.64-5.54-6.1-7.27-10.34-1.73-4.23-2.52-8.77-2.39-13.51,.13-4.59,1.17-8.55,3.12-11.99,1.95-3.45,4.54-6.04,7.79-7.8,3.24-1.76,6.84-2.47,10.79-1.96,3.95,.5,7.49,2.15,10.61,5,3.12,2.84,5.55,6.55,7.28,10.96,1.73,4.4,2.53,8.99,2.4,13.62-.14,4.79-1.18,8.74-3.13,12.02-1.95,3.29-4.55,5.61-7.79,7.14-3.25,1.52-6.85,2.06-10.8,1.54-3.95-.52-7.49-2.03-10.61-4.68Zm1.33-8.48c2.26,3.8,5.42,5.96,9.48,6.61,4.06,.64,7.32-.45,9.78-3.28,2.46-2.84,3.76-6.78,3.92-12.12,.15-5.12-.91-9.77-3.18-13.68-2.27-3.92-5.43-6.21-9.49-6.84-4.06-.63-7.32,.61-9.77,3.56-2.45,2.96-3.75,6.95-3.9,12.05-.15,5.31,.9,9.89,3.17,13.69Z"/><path class="cls-2" d="M97.68,162.94c-3.24-.39-6.48-.79-9.71-1.21,.07-2.71,.14-5.48,.2-8.33,3.24,.36,6.48,.72,9.71,1.05,.1-4.35,.96-8.37,2.58-12.05,1.62-3.68,3.8-6.68,6.53-8.86,2.74-2.19,5.78-3.28,9.13-3.14,1.04,.04,2.08,.21,3.12,.5,1.04,.29,1.83,.61,2.37,.96-.07,3.6-.14,7.1-.21,10.49-.82-.36-1.75-.68-2.78-.98-1.04-.3-1.94-.47-2.71-.52-2.85-.19-5.26,1.2-7.22,3.98-1.96,2.78-2.98,6.28-3.08,10.42,5.16,.5,10.32,.97,15.48,1.41-.07,3.02-.14,5.94-.2,8.76-5.16-.48-10.32-1.01-15.48-1.58-.39,15.74-.77,28.7-1.16,38.96-2.58-.22-5.16-.45-7.74-.69,.39-10.57,.77-23.59,1.16-39.17Z"/><path class="cls-2" d="M163.79,206.08c-5.45-10.53-10.89-26.54-16.34-47.48,2.77,.17,5.54,.34,8.31,.49,4.05,16.95,8.1,30.58,12.15,40.67,4.79-9.8,9.57-22.93,14.36-39.46,2.77,.1,5.54,.19,8.31,.27-8.4,27.41-16.81,45.44-25.21,54.45-2.58-.03-5.16-.06-7.74-.1,2.05-2.38,4.1-5.32,6.15-8.84Z"/><path class="cls-2" d="M201.22,205.34c-3.12-1.51-5.54-3.66-7.27-6.76-1.73-3.11-2.52-6.87-2.39-11.49,.13-4.47,1.17-8.95,3.12-13.23,1.95-4.28,4.54-7.88,7.79-10.5,3.24-2.63,6.84-3.97,10.79-3.9,3.95,.05,7.49,1.48,10.61,4.13,3.12,2.64,5.55,6.19,7.28,10.4,1.73,4.2,2.53,8.59,2.4,13.01-.14,4.58-1.18,8.35-3.13,11.49-1.95,3.14-4.55,5.34-7.79,6.86-3.25,1.52-6.85,2.2-10.8,2.2-3.95-.01-7.49-.7-10.61-2.2Zm1.33-6.57c2.26,2.73,5.42,3.92,9.48,3.93,4.06-.02,7.32-1.23,9.78-3.99,2.46-2.77,3.76-6.49,3.92-11.6,.14-4.91-.92-9.39-3.18-13.07-2.27-3.69-5.43-5.71-9.49-5.72-4.06-.04-7.32,1.94-9.77,5.66-2.45,3.7-3.76,8.26-3.9,13.2-.15,5.14,.9,8.84,3.17,11.59Z"/><path class="cls-2" d="M279.04,206.04c-2.58,.05-5.16,.09-7.74,.14,.08-2.14,.17-4.41,.25-6.81-1.35,2.44-3.35,4.32-6.01,5.75-2.66,1.42-5.44,2.09-8.35,2.13-3.18,.04-6.04-.53-8.57-1.76-2.53-1.23-4.49-2.99-5.88-5.46-1.39-2.47-2.03-5.42-1.92-8.99,.27-8.44,.53-18.42,.8-29.93,2.58-.02,5.16-.04,7.74-.06-.27,11.39-.53,21.33-.8,29.79-.12,3.68,.75,6.41,2.6,8.46,1.84,2.04,4.47,2.95,7.87,2.88,2.3-.06,4.42-.57,6.35-1.6,1.93-1.03,3.47-2.43,4.63-4.28,1.16-1.85,1.78-3.93,1.85-6.29,.27-8.53,.53-18.33,.8-29.36,2.58-.06,5.16-.13,7.74-.2-.45,18.6-.91,33.84-1.36,45.59Z"/><path class="cls-2" d="M291.92,160.11c2.58-.08,5.16-.17,7.74-.27-.1,4.04-.2,7.95-.3,11.71,1.3-3.54,3.21-6.49,5.74-8.71,2.53-2.23,5.6-3.42,9.22-3.57,.58-.02,1.15-.05,1.73-.07-.07,2.57-.13,5.09-.2,7.57-.58,.03-1.15,.06-1.73,.09-4.88,.25-8.59,2.13-11.12,5.54-2.53,3.4-3.87,7.73-4.02,12.67-.22,7.55-.45,14.42-.67,20.59-2.58,.05-5.16,.1-7.74,.15,.45-12.17,.91-27.46,1.36-45.71Z"/><path class="cls-2" d="M360.45,203.13c-2.72-1.65-4.62-3.75-5.69-6.35-.08,2.62-.15,5.22-.23,7.81-2.58,.04-5.16,.09-7.74,.13,.63-20.31,1.25-42.53,1.88-66.23,2.58,0,5.16,0,7.74,0-.25,9.28-.5,18.42-.75,27.39,1.34-2.92,3.42-5.4,6.25-7.39,2.82-1.99,5.83-3.05,9.01-3.22,3.62-.19,6.86,.73,9.7,2.73,2.85,2,5.05,4.8,6.62,8.48,1.57,3.68,2.28,7.9,2.15,12.72-.13,4.82-1.09,9.3-2.88,13.33-1.78,4.04-4.16,7.25-7.13,9.57-2.97,2.32-6.27,3.46-9.89,3.49-3.29,.03-6.3-.81-9.02-2.46Zm-3.82-12.83c1.05,2.63,2.55,4.67,4.51,6.15,1.96,1.48,4.23,2.19,6.81,2.11,2.58-.08,4.89-.95,6.94-2.64,2.05-1.69,3.65-3.96,4.79-6.79,1.15-2.83,1.77-5.98,1.87-9.43,.1-3.39-.35-6.42-1.35-9.1-.99-2.67-2.47-4.72-4.43-6.15-1.96-1.43-4.23-2.07-6.81-1.91-2.58,.16-4.89,1.09-6.94,2.8-2.05,1.71-3.67,3.99-4.88,6.82-1.2,2.83-1.85,5.92-1.95,9.24-.1,3.32,.38,6.27,1.43,8.9Z"/><path class="cls-2" d="M434.88,203.95c-2.58,0-5.16-.01-7.74-.02,.08-3.56,.17-7.04,.25-10.45-1.35,3.44-3.35,6.32-6.01,8.56-2.66,2.24-5.45,3.34-8.35,3.33-3.18,0-6.04-1.05-8.57-3.05-2.53-1.99-4.49-4.71-5.88-8.11-1.39-3.4-2.03-7.14-1.92-11.25,.27-9.7,.53-19.02,.8-27.95,2.58-.14,5.16-.28,7.74-.42-.27,8.82-.53,18.14-.8,27.94-.12,4.27,.75,7.81,2.6,10.63,1.84,2.81,4.47,4.24,7.87,4.17,2.3-.05,4.42-.79,6.35-2.25,1.93-1.45,3.47-3.42,4.63-5.87,1.16-2.44,1.77-5.09,1.85-7.89,.27-10.12,.53-19.45,.8-27.97,2.58-.13,5.16-.26,7.74-.39-.45,14.39-.91,31.42-1.36,50.96Z"/><path class="cls-2" d="M454.53,203.17c-3.01-1.68-5.35-3.91-7.01-6.64-1.66-2.73-2.46-5.72-2.38-8.96,2.58-.08,5.16-.15,7.74-.22-.04,1.61,.46,3.12,1.5,4.52,1.04,1.41,2.46,2.54,4.28,3.38,1.82,.84,3.88,1.26,6.19,1.25,3.4,0,6.25-.96,8.54-2.86,2.29-1.89,3.47-4.25,3.53-6.99,.04-1.81-.47-3.22-1.54-4.26-1.07-1.04-2.41-1.82-4.02-2.35-1.61-.52-3.88-1.08-6.83-1.67-3.82-.74-6.95-1.51-9.4-2.34-2.45-.83-4.51-2.19-6.18-4.05-1.68-1.85-2.47-4.38-2.38-7.49,.08-2.62,.92-4.95,2.55-7.03,1.63-2.08,3.84-3.69,6.65-4.89,2.8-1.19,5.91-1.84,9.31-1.97,3.57-.14,6.78,.26,9.62,1.21,2.85,.95,5.06,2.35,6.65,4.27,1.59,1.92,2.34,4.17,2.27,6.8-2.58,.09-5.16,.18-7.74,.28,.06-1.92-.97-3.44-3.07-4.6-2.1-1.16-4.75-1.66-7.93-1.52-2.96,.13-5.45,.85-7.47,2.2-2.01,1.35-3.05,2.96-3.1,4.87-.04,1.47,.47,2.66,1.55,3.54,1.07,.88,2.42,1.54,4.06,1.99,1.63,.44,3.87,.9,6.71,1.37,3.87,.72,7.02,1.52,9.44,2.38,2.42,.86,4.48,2.29,6.18,4.36,1.7,2.07,2.51,4.97,2.42,8.82-.08,3.59-1.01,6.92-2.77,9.9-1.77,2.98-4.16,5.34-7.19,6.99-3.03,1.66-6.38,2.45-10.06,2.38-3.73-.06-7.1-.98-10.11-2.66Z"/><path class="cls-2" d="M496.41,150.66c2.58-.06,5.16-.12,7.74-.17-.45,13.57-.91,31.74-1.36,54.44-2.58-.07-5.16-.13-7.74-.19,.45-22.41,.91-40.47,1.36-54.08Zm.41-6.84c-.96-.73-1.42-1.64-1.38-2.7,.04-1.02,.57-1.85,1.58-2.53,1.02-.67,2.26-1,3.75-1.01,1.43,0,2.62,.3,3.58,.94,.96,.65,1.42,1.45,1.38,2.46-.04,1.04-.57,1.96-1.59,2.71-1.02,.76-2.24,1.16-3.66,1.19-1.48,.03-2.7-.33-3.66-1.06Z"/><path class="cls-2" d="M516.5,150.29c2.58-.03,5.16-.05,7.74-.07-.08,2.51-.17,5.2-.25,8.06,1.34-2.86,3.35-5.05,6.01-6.7,2.66-1.64,5.44-2.41,8.36-2.4,3.18,.02,6.04,.79,8.57,2.39,2.53,1.61,4.49,3.89,5.88,7.05,1.39,3.16,2.03,6.88,1.92,11.31-.27,10.46-.53,22.71-.8,36.73-2.58-.11-5.16-.21-7.74-.31,.27-13.97,.53-26.17,.8-36.6,.12-4.54-.75-7.98-2.6-10.59-1.85-2.6-4.47-3.81-7.87-3.84-2.3-.01-4.42,.55-6.35,1.72-1.93,1.17-3.47,2.8-4.63,4.97-1.16,2.17-1.77,4.65-1.85,7.5-.27,10.31-.53,22.31-.8,35.99-2.58-.08-5.16-.16-7.74-.24,.45-23.11,.91-41.46,1.36-54.98Z"/><path class="cls-2" d="M570.97,204.34c-3.09-3.39-5.4-7.87-6.9-13.15-1.51-5.27-2.2-10.95-2.05-16.76,.13-5.42,1.16-9.87,3.07-13.58,1.92-3.71,4.51-6.33,7.79-8.13,3.27-1.79,6.86-2.54,10.75-2.35,4.06,.2,7.61,1.29,10.65,3.41,3.04,2.12,5.37,5.04,6.99,8.98,1.62,3.95,2.36,8.61,2.23,14.22-.02,.9-.11,2.26-.26,4.12-11.06-.84-22.12-1.5-33.18-2-.06,2.76,.42,5.68,1.45,8.77,1.03,3.09,2.52,5.77,4.45,7.93,1.93,2.17,4.11,3.34,6.52,3.46,2.63,.14,5.13-.95,7.48-3.18,2.35-2.22,4.06-5.02,5.12-8.31,2.33,1.54,4.66,3.11,6.99,4.69-1,3.15-2.56,6.09-4.67,8.78-2.11,2.69-4.52,4.85-7.21,6.39-2.69,1.54-5.33,2.28-7.91,2.16-4.45-.2-8.21-2.08-11.31-5.47Zm24.81-31.93c-.32-4.75-1.55-8.4-3.7-11.21-2.15-2.8-5.03-4.2-8.65-4.4-3.62-.18-6.62,.91-9.01,3.48-2.38,2.58-3.85,6.04-4.41,10.68,8.59,.37,17.18,.85,25.77,1.46Z"/><path class="cls-2" d="M620,208.85c-3.01-2.01-5.35-4.68-7.01-7.91-1.67-3.23-2.46-6.71-2.38-10.34,2.58,.2,5.16,.4,7.74,.61-.04,1.77,.46,3.48,1.5,5.13,1.04,1.65,2.46,3.01,4.28,4.07,1.82,1.06,3.88,1.67,6.19,1.83,3.4,.24,6.25-.55,8.54-2.28,2.29-1.74,3.47-3.99,3.53-6.76,.04-1.83-.47-3.32-1.54-4.53-1.07-1.21-2.41-2.19-4.02-2.96-1.61-.76-3.88-1.66-6.83-2.69-3.82-1.31-6.95-2.58-9.4-3.81-2.45-1.23-4.51-3-6.18-5.23-1.68-2.23-2.47-5.06-2.38-8.32,.08-2.74,.92-5.03,2.55-6.93,1.63-1.9,3.84-3.23,6.65-4.06,2.8-.82,5.91-1.05,9.31-.68,3.57,.38,6.77,1.29,9.62,2.76,2.85,1.47,5.06,3.34,6.65,5.66,1.59,2.31,2.34,4.82,2.27,7.54-2.58-.37-5.16-.72-7.74-1.05,.06-1.99-.97-3.76-3.07-5.34-2.1-1.57-4.75-2.53-7.93-2.89-2.96-.33-5.45,.03-7.47,1.12-2.01,1.09-3.05,2.62-3.1,4.62-.04,1.54,.47,2.88,1.54,3.97,1.07,1.09,2.42,2,4.06,2.72,1.63,.72,3.87,1.54,6.7,2.48,3.87,1.36,7.02,2.69,9.44,3.94,2.41,1.26,4.48,3.04,6.18,5.38,1.7,2.34,2.51,5.33,2.42,9.11-.08,3.52-1.01,6.67-2.77,9.46-1.77,2.79-4.16,5-7.19,6.56-3.03,1.55-6.38,2.3-10.06,2.12-3.73-.18-7.1-1.27-10.11-3.28Z"/><path class="cls-2" d="M667.74,211.47c-3.01-1.74-5.35-4.09-7.01-7-1.67-2.9-2.46-6.07-2.38-9.38,2.58,.29,5.16,.59,7.74,.89-.04,1.58,.46,3.14,1.5,4.63,1.04,1.49,2.46,2.73,4.28,3.69,1.82,.96,3.88,1.53,6.19,1.73,3.4,.29,6.25-.3,8.54-1.66,2.29-1.36,3.47-3.17,3.54-5.51,.04-1.54-.47-2.86-1.55-3.97-1.07-1.11-2.41-2.06-4.02-2.83-1.61-.78-3.88-1.72-6.83-2.83-3.82-1.42-6.95-2.79-9.4-4.09-2.45-1.3-4.51-3.09-6.18-5.34-1.68-2.24-2.47-5.03-2.38-8.26,.08-2.71,.93-4.98,2.55-6.83,1.63-1.85,3.84-3.1,6.65-3.79,2.8-.69,5.91-.74,9.31-.12,3.57,.64,6.77,1.84,9.62,3.6,2.85,1.76,5.06,3.9,6.65,6.38,1.59,2.48,2.34,5.04,2.27,7.67-2.58-.56-5.16-1.1-7.74-1.62,.05-1.93-.97-3.77-3.07-5.52-2.1-1.74-4.74-2.92-7.93-3.52-2.96-.55-5.45-.35-7.47,.62-2.01,.97-3.05,2.43-3.1,4.4-.04,1.52,.47,2.85,1.54,3.98,1.07,1.13,2.42,2.1,4.06,2.89,1.63,.8,3.87,1.73,6.7,2.81,3.87,1.55,7.02,3,9.44,4.31,2.42,1.32,4.48,3.07,6.18,5.24,1.7,2.16,2.51,4.77,2.42,7.89-.08,2.9-1.01,5.37-2.77,7.54-1.77,2.17-4.17,3.87-7.19,5.09-3.03,1.22-6.38,1.83-10.05,1.69-3.73-.14-7.1-1.04-10.11-2.78Z"/></g><text/><g><path class="cls-2" d="M719.62,258.75c-1.23-2.89-1.7-5.78-1.42-8.7,.28-2.93,1.32-5.59,3.12-8.08,3.78-5.24,7.57-10.82,11.35-16.7-2.48-1.87-4.95-3.72-7.43-5.52,1.21-1.83,2.41-3.7,3.62-5.61,2.48,1.77,4.95,3.58,7.43,5.42,2.01-3.22,4.02-6.51,6.03-9.87,1.97,1.44,3.95,2.9,5.92,4.36-2.01,3.37-4.02,6.69-6.03,9.94,3.94,2.97,7.89,5.97,11.83,8.94-1.21,1.98-2.41,3.94-3.62,5.88-3.94-3-7.89-6.03-11.83-9.05-3.78,5.96-7.57,11.66-11.35,17.04-1.69,2.41-2.37,4.94-2.03,7.69,.34,2.75,1.6,5.06,3.78,6.9,.59,.49,1.32,1.02,2.2,1.57,.88,.55,1.69,1.01,2.43,1.37-1.23,1.75-2.47,3.48-3.7,5.18-.53-.21-1.24-.59-2.12-1.17-.88-.57-1.72-1.21-2.52-1.9-2.56-2.23-4.45-4.81-5.68-7.7Z"/><path class="cls-2" d="M769.48,222.3c1.97,1.46,3.94,2.91,5.92,4.35-4.54,7.71-9.09,15.34-13.63,22.73,2.46-1.73,5.17-2.67,8.12-2.82,2.95-.15,5.54,.54,7.76,2.09,2.43,1.69,4.18,3.96,5.24,6.81,1.06,2.85,1.34,5.98,.86,9.41-.49,3.42-1.73,6.77-3.73,10.03-4.71,7.68-9.42,15.19-14.13,22.44-1.97-1.36-3.94-2.74-5.92-4.15,4.71-7.16,9.42-14.6,14.13-22.24,2.13-3.46,3.17-6.73,3.12-9.76-.05-3.04-1.51-5.54-4.36-7.54-1.76-1.24-3.68-1.87-5.75-1.89-2.07-.02-4.07,.54-5.99,1.66-1.92,1.13-3.53,2.72-4.83,4.79-4.71,7.46-9.42,14.63-14.13,21.45-1.97-1.58-3.94-3.19-5.92-4.83,11.08-15.64,22.17-33.62,33.25-52.51Z"/><path class="cls-2" d="M797.54,263.21c1.97,1.22,3.94,2.43,5.92,3.61-1.8,3-3.6,6-5.4,8.99,2.59-2.2,5.31-3.56,8.17-4.07,2.86-.51,5.67,.03,8.44,1.59,.44,.25,.88,.5,1.32,.74-1.18,1.96-2.36,3.92-3.53,5.88-.44-.25-.88-.49-1.32-.74-3.74-2.11-7.33-2.43-10.77-.91-3.45,1.52-6.47,4.41-9.08,8.68-3.98,6.51-7.95,12.92-11.93,19.17-1.97-1.23-3.94-2.49-5.92-3.77,8.04-12.52,16.07-25.76,24.11-39.17Z"/><path class="cls-2" d="M803.32,317.79c-1.31-3.14-1.69-6.71-1.13-10.69,.56-3.99,2.05-7.97,4.46-11.95,2.33-3.84,5.15-6.97,8.47-9.38,3.32-2.41,6.73-3.86,10.25-4.35,3.51-.49,6.78,.06,9.8,1.64,3.02,1.58,5.21,3.89,6.56,6.93,1.35,3.04,1.78,6.51,1.27,10.4-.51,3.89-1.92,7.78-4.25,11.64-2.41,4.01-5.3,7.28-8.68,9.81-3.37,2.53-6.84,4.07-10.39,4.64-3.56,.57-6.84,.04-9.87-1.56-3.02-1.61-5.19-3.99-6.5-7.13Zm5.37-6.96c.06,3.83,1.64,6.57,4.75,8.21,3.1,1.64,6.43,1.49,9.98-.45,3.55-1.94,6.67-5.15,9.36-9.62,2.58-4.28,3.79-8.27,3.65-11.96-.14-3.69-1.77-6.34-4.87-7.96-3.11-1.62-6.39-1.54-9.86,.26-3.47,1.8-6.49,4.84-9.07,9.1-2.69,4.45-4,8.58-3.94,12.41Z"/><path class="cls-2" d="M861.81,351.47c-1.97-1.15-3.94-2.28-5.92-3.4,1.5-2.49,2.99-4.98,4.49-7.47-2.46,1.95-5.17,3.15-8.12,3.64-2.95,.48-5.54,.12-7.76-1.09-2.44-1.32-4.18-3.24-5.24-5.8-1.06-2.55-1.34-5.46-.85-8.73,.49-3.27,1.73-6.57,3.72-9.88,4.71-7.83,9.42-15.67,14.13-23.4,1.97,1.03,3.95,2.06,5.92,3.11-4.71,7.71-9.42,15.54-14.13,23.37-2.05,3.41-3.01,6.6-2.87,9.58,.14,2.98,1.51,5.17,4.11,6.57,1.76,.95,3.68,1.31,5.75,1.08,2.07-.24,4.07-1.02,5.99-2.35,1.92-1.33,3.53-3.07,4.83-5.24,4.71-7.83,9.42-15.61,14.13-23.22,1.97,1.13,3.94,2.29,5.92,3.46-8.04,12.91-16.07,26.37-24.11,39.76Z"/><path class="cls-2" d="M869.26,373.27c-1.71-3.02-2.55-5.92-2.52-8.75,2.32-.37,4.64-.73,6.96-1.08-.05,2.01,.46,4.05,1.52,6.12,1.06,2.07,2.41,3.66,4.05,4.75,1.8,1.2,3.75,1.79,5.84,1.74,2.09-.05,4.1-.67,6.03-1.86,1.93-1.2,3.56-2.87,4.91-5.02,.48-.81,.97-1.62,1.46-2.43-2.21,1.21-4.67,1.74-7.36,1.6-2.69-.14-5.15-.94-7.38-2.41-2.77-1.83-4.71-4.36-5.83-7.62-1.12-3.26-1.35-6.87-.7-10.87,.65-3.99,2.16-7.96,4.54-11.9,2.38-3.93,5.18-7.08,8.38-9.41,3.2-2.33,6.48-3.66,9.81-3.97,3.33-.31,6.38,.5,9.15,2.41,2.18,1.51,3.88,3.55,5.08,6.1,1.21,2.56,1.76,5.2,1.68,7.92,1.15-1.79,2.3-3.57,3.45-5.33,1.97,1.46,3.95,2.94,5.92,4.45-7.43,11.19-14.85,23.21-22.28,35.63-2,3.34-4.49,5.89-7.47,7.66-2.98,1.77-6.14,2.6-9.46,2.5-3.32-.1-6.45-1.16-9.39-3.13-2.56-1.72-4.69-4.09-6.4-7.11Zm13.85-21.4c.19,4.08,1.92,7.19,5.2,9.37,1.76,1.18,3.77,1.59,6.02,1.24,2.25-.35,4.49-1.37,6.71-3.07,2.23-1.7,4.18-3.92,5.87-6.66,1.69-2.74,2.8-5.49,3.33-8.27,.53-2.78,.48-5.31-.17-7.61-.64-2.29-1.85-4.05-3.61-5.27-3.27-2.26-6.72-2.63-10.33-1.12-3.61,1.51-6.74,4.44-9.37,8.77-2.63,4.34-3.85,8.55-3.66,12.63Z"/><path class="cls-2" d="M942.21,331.66c1.97,1.68,3.94,3.39,5.92,5.12-4.54,6.03-9.09,12.45-13.63,19.22,2.46-1.46,5.17-2.04,8.12-1.75,2.95,.29,5.54,1.43,7.76,3.32,2.43,2.07,4.18,4.58,5.24,7.48,1.06,2.89,1.34,5.87,.86,9-.49,3.13-1.73,6.07-3.73,8.94-4.71,6.77-9.42,14.09-14.13,21.84-1.97-1.41-3.94-2.85-5.92-4.31,4.71-7.8,9.42-15.23,14.13-22.16,2.13-3.14,3.17-6.09,3.12-9.01-.06-2.91-1.51-5.56-4.36-7.92-1.76-1.46-3.68-2.34-5.75-2.6-2.07-.27-4.07,.07-5.99,1.04-1.92,.96-3.53,2.46-4.83,4.48-4.71,7.31-9.42,14.97-14.13,22.86-1.97-1.47-3.94-2.94-5.92-4.39,11.08-18.64,22.17-36.05,33.25-51.16Z"/></g></svg>