<?xml version="1.0" encoding="UTF-8"?><svg id="Layer_1" xmlns="http://www.w3.org/2000/svg" viewBox="0 0 400 400"><defs><style>.cls-1,.cls-2,.cls-3{glyph-orientation-vertical:0deg;text-orientation:upright;}.cls-1,.cls-2,.cls-3,.cls-4,.cls-5{writing-mode:tb;}.cls-2,.cls-3,.cls-4,.cls-5{font-size:35.91px;}.cls-2,.cls-5{font-family:NeuethingSans-MediumUltraExpanded, 'Neuething Sans';}.cls-6{fill:#fff;stroke:#000;stroke-miterlimit:10;stroke-width:.39px;}.cls-3,.cls-4{font-family:NeuethingSans-SemiBoldUltraExpanded, 'Neuething Sans';}.cls-4,.cls-5{glyph-orientation-vertical:90deg;text-orientation:sideways-right;}.cls-7{font-family:NeuethingSans-BoldUltraExpanded, 'Neuething Sans';font-size:343.6px;}</style></defs><text class="cls-3" transform="translate(343.35 145.18) rotate(-12.33) scale(1 1.07)"><tspan x="0" y="0">V</tspan></text><text class="cls-3" transform="translate(351.23 183.92) rotate(3.97) scale(1 1.07)"><tspan x="0" y="0">E</tspan></text><text class="cls-3" transform="translate(347.94 223.37) rotate(19.36) scale(1 1.07)"><tspan x="0" y="0">R</tspan></text><text class="cls-3" transform="translate(334.33 260.55) rotate(34.01) scale(1 1.07)"><tspan x="0" y="0">N</tspan></text><text class="cls-3" transform="translate(311.74 293.13) rotate(48.22) scale(1 1.07)"><tspan x="0" y="0">O</tspan></text><text class="cls-3" transform="translate(281.85 319.18) rotate(61.96) scale(1 1.07)"><tspan x="0" y="0">N</tspan></text><text class="cls-4" transform="translate(241.63 323.06) rotate(71.64) scale(1 1.07)"><tspan x="0" y="0"> </tspan></text><text class="cls-4" transform="translate(230.25 326.82) rotate(76.33) scale(1 1.07)"><tspan x="0" y="0"> </tspan></text><text class="cls-3" transform="translate(221.19 344.66) rotate(85.39) scale(1 1.07)"><tspan x="0" y="0">*</tspan></text><text class="cls-2" transform="translate(181.62 346.85) rotate(98.07) scale(.7 .75)"><tspan x="0" y="0">W</tspan></text><text class="cls-2" transform="translate(153.65 342.59) rotate(108.93) scale(.7 .75)"><tspan x="0" y="0">E</tspan></text><text class="cls-2" transform="translate(126.98 333.13) rotate(120.27) scale(.7 .75)"><tspan x="0" y="0">B</tspan></text><text class="cls-5" transform="translate(111.97 307.07) rotate(129.26) scale(1 1.07)"><tspan x="0" y="0"> </tspan></text><text class="cls-5" transform="translate(102.88 299.63) rotate(134.83) scale(1 1.07)"><tspan x="0" y="0"> </tspan></text><text class="cls-5" transform="translate(94.59 291.38) rotate(140.43) scale(1 1.07)"><tspan x="0" y="0"> </tspan></text><text class="cls-2" transform="translate(74.52 291.15) rotate(151.01) scale(1 1.07)"><tspan x="0" y="0">*</tspan></text><text class="cls-2" transform="translate(56.37 256.02) rotate(165.55) scale(.7 .75)"><tspan x="0" y="0">D</tspan></text><text class="cls-2" transform="translate(49.74 229.22) rotate(177.12) scale(.7 .75)"><tspan x="0" y="0">E</tspan></text><text class="cls-2" transform="translate(48.61 201.62) rotate(-171.74) scale(.7 .75)"><tspan x="0" y="0">S</tspan></text><text class="cls-2" transform="translate(52.84 174.3) rotate(-161.04) scale(.7 .75)"><tspan x="0" y="0">I</tspan></text><text class="cls-2" transform="translate(62.06 148.21) rotate(-150.72) scale(.7 .75)"><tspan x="0" y="0">G</tspan></text><text class="cls-2" transform="translate(75.8 124.19) rotate(-140.64) scale(.7 .75)"><tspan x="0" y="0">N</tspan></text><text class="cls-2" transform="translate(93.55 102.92) rotate(-130.76) scale(.7 .75)"><tspan x="0" y="0">S</tspan></text><text class="cls-5" transform="translate(122.91 97.2) rotate(-123.4) scale(1 1.07)"><tspan x="0" y="0"> </tspan></text><text class="cls-5" transform="translate(132.97 90.6) rotate(-118.88) scale(1 1.07)"><tspan x="0" y="0"> </tspan></text><text class="cls-2" transform="translate(137.04 71.03) rotate(-110.13) scale(1 1.07)"><tspan x="0" y="0">*</tspan></text><text class="cls-5" transform="translate(177.35 72.76) rotate(-100.27) scale(1 1.07)"><tspan x="0" y="0"> </tspan></text><text class="cls-2" transform="translate(187.46 55.49) rotate(-91.14) scale(1 1.07)"><tspan x="0" y="0">2</tspan></text><text class="cls-2" transform="translate(227.08 55.15) rotate(-76.33) scale(1 1.07)"><tspan x="0" y="0">0</tspan></text><text class="cls-2" transform="translate(265.44 64.96) rotate(-60.7) scale(1 1.07)"><tspan x="0" y="0">2</tspan></text><text class="cls-2" transform="translate(299.67 84.73) rotate(-44.2) scale(1 1.07)"><tspan x="0" y="0">2</tspan></text><text class="cls-5" transform="translate(313.99 121.93) rotate(-32.49) scale(1 1.07)"><tspan x="0" y="0"> </tspan></text><text class="cls-5" transform="translate(320.29 131.85) rotate(-26.96) scale(1 1.07)"><tspan x="0" y="0"> </tspan></text><text class="cls-5" transform="translate(325.59 142.29) rotate(-21.37) scale(1 1.07)"><tspan x="0" y="0"> </tspan></text><text class="cls-5" transform="translate(329.85 153.21) rotate(-15.77) scale(1 1.07)"><tspan x="0" y="0"> </tspan></text><text class="cls-5" transform="translate(333.03 164.49) rotate(-10.2) scale(1 1.07)"><tspan x="0" y="0"> </tspan></text><text class="cls-1"/><text class="cls-1"/><text class="cls-7" transform="translate(88.41 293.97) scale(.59 .7)"><tspan x="0" y="0">O</tspan></text><g id="Shape_75"><path class="cls-6" d="M193.83,83.36c6.68-.63,13.4,.95,20.18,1.83,1.36,.21,2.71,.44,4.07,.68,9.48,1.67,18.87,4.04,27.85,7.48-8.75-1.15-17.51-2.83-26.37-4.19-1.27-.2-2.54-.38-3.8-.56-7.34-.75-16.82-4.68-21.56,1.22-9.87,12.19-26.06,8.65-38.18,14.05-1.22,.72-2.42,1.44-3.63,2.15-7.23,4.24-14.44,8.12-21.79,12.16-1.07,.69-2.09,1.41-3.09,2.15-7.98,5.91-14.51,13.23-19.57,21.46-.79,1.28-1.54,2.59-2.3,3.92-7.42,10.17-10.58,21.97-10.27,34.69-.14,1.52-.24,3.05-.31,4.58-1.26,25.16,6.23,49.31,20.46,68.41,.89,1.19,1.8,2.37,2.74,3.52,4.84,5.92,10.37,11.03,15.98,15.61,1.19,.92,2.4,1.82,3.63,2.69,8.63,6.08,18.37,10.84,29.06,13.96-.79-.79-1.58-.39-2.37-.39,18.48,3.07,38.13,3.97,55.81-1.38,1.36-.41,2.71-.86,4.04-1.35,6.5-4.35,12.03,1.16,18.35,1.16,3.95,0,5.92-3.93,8.29-7.08,5.53-8.65,7.5-18.48,13.79-25.95,.93-1.13,1.84-2.26,2.72-3.4,9.72-12.61,16.3-27.04,13.89-43.37-3.55-24.37-12.64-51.11-35.94-62.9-21.72-11.01-47-22.8-70.64-11.99-1.01,.43-2,.88-3.03,1.24-.68,.35-1.48,.46-2.08,.95-2.43,1.21-4.68,2.75-7.11,3.93-.69,.45-1.34,.95-1.95,1.49-.79,.22-1.31,.87-1.94,1.33-1.77,1.32-3.48,2.71-5.13,4.17-.82,.73-1.63,1.48-2.5,2.23-.94,.76-2,1.45-3.14,2.1s-2.34,1.26-3.57,1.86c-7.91,6.06-29.23,4.88-25.28,15.49,3.16,7.86,13.43,14.15,11.33,24.25-.03,1.14-.09,2.27-.16,3.41s-.12,2.27-.15,3.41c.24,1.54,.06,3.11,.3,4.64,.06,1.47,.26,2.94,.6,4.38,.29,2.21,.71,4.39,1.26,6.55,.96,2.65,1.6,5.43,2.84,7.99,.68,1.31,1.15,2.7,1.77,4.04,.11,.21,0,.45,0,.68-.3-.08-.59-.15-.88-.2,.04-.11,.11-.34,.15-.45-.3,.16-.59,.33-.87,.51,.24,.28,.49,.54,.76,.79,.45,.13,.85-.24,1.24-.39,1.45,2.55,2.95,5.08,4.6,7.51,1.74,2.15,3.26,4.49,5.31,6.38,2.2,2.7,4.98,4.85,7.62,7.12,1.3,.86,2.65,1.67,3.95,2.57,3.76,2.63,8.02,4.42,12.24,6.16,2.1,.7,4.17,1.5,6.35,1.9,2.97,.8,6.01,1.31,9.08,1.54,.79,.06,1.58,.13,2.37,.22,2.17,.16,4.34,.16,6.51,0,5.24-.26,10.42-1.21,15.4-2.82,3.29-1.29,6.62-2.58,9.72-4.28,1.03-.57,2.05-1.18,3.03-1.83,8.16-3.1,13.69,10.27,18.82,9.09,13.82-3.15,7.11-28.31,8.08-42.07-.07-1.6-.16-3.19-.26-4.77-.29-4.74-.64-9.35-.62-13.4-.06-.91-.14-1.83-.25-2.73-.32-2.73-.86-5.43-1.61-8.08-1.41-3.9-2.72-7.93-5.07-11.4-1.56-2.7-3.34-5.26-5.33-7.66-1.58-1.47-2.94-3.15-4.53-4.56-1.58-1.18-2.91-2.61-4.53-3.71-1.33-.84-2.6-1.8-4.03-2.47l-.08-.63c-.21,.07-.42,.15-.62,.24-.69-.39-1.51-.61-2.05-1.18-.99-.27-1.9-.73-2.87-1.04l-.34-.29c-2.7-1-5.47-1.79-8.29-2.36-2.11-.87-4.52-.57-6.75-.85-1.58-.17-3.18-.17-4.76,0-3.52,.03-6.95,.76-10.34,1.65-1.13,.3-2.25,.61-3.37,.92-1.99,1.4-4.76,1.8-7.13,2.98-5.68,2.7-14.9,2.03-21.31,3.64-1.3,.33-2.48,.75-3.56,1.28-9.09,3.73-1.58,12.38,1.8,17.27,.53,1.06,.94,2.16,1.13,3.3,.19,1.14,.17,2.32-.16,3.56-.18,.94-.37,1.88-.53,2.82s-.29,1.89-.39,2.84c-.24,1.64-.32,3.3-.24,4.96,.09,.86,.11,1.75,.23,2.61,.79,10.54,5.86,20.76,14.06,27.52,1.93,1.75,4.23,3.02,6.39,4.45,.61,.37,1.26,.66,1.94,.88,4.34,2.27,9.27,3.09,14.09,3.68,1.37,.06,2.76,.23,4.14,0l2.39-.22c.96-.05,1.91-.19,2.84-.43,2.7-.61,5.43-1.27,7.94-2.47,1.07-.53,2.17-.99,3.23-1.54,.8-.47,1.59-.97,2.45-1.42,9.39-5.51,16.5,5.5,25.19,5.89,5.13,0,3.95-7.86,2.76-12.19-1.97-10.61-6.71-19.26-12.15-28.23-.54-.88-1.09-1.75-1.65-2.62-1.66-2.6-3.32-5.22-4.82-7.99-.62-.92-1.3-1.81-2.02-2.66-2.88-3.39-6.5-6.16-10.63-7.86-.91-.36-1.82-.75-2.75-1.08s-1.88-.59-2.87-.69c-11.69-.76-30.65-9.41-35.78,1.6-2.76,5.5,6.71,12.97,4.12,21.03-.1,1.1-.11,2.2-.04,3.29s.22,2.19,.45,3.26c.81,1.97,1.12,4.12,2.29,5.92,.79,1.57,2.17,2.75,3.23,4.14,.67,.84,1.45,1.59,2.3,2.24,1.9,1.29,3.85,2.66,6.13,3.22,1.07,.38,2.18,.65,3.31,.81,1.47,.36,2.94,.5,4.37,.45s2.84-.29,4.19-.7c1.19-.46,2.38-.91,3.58-1.35,1.21-.44,2.41-.87,3.64-1.27,7.04-2.91,14.55,2.59,20.47-.16,5.92-2.75-4.34-11.79-7.06-17.25-.87-1.06-1.77-2.06-2.71-3.02-7.51-7.69-17.59-13.31-27.3-17.56-1.4-.49-2.75-.84-3.99-.98-2.47-.28-4.49,.29-5.54,2.26-.44,.93-.77,2.01-.96,3.2-.2,1.18-.27,2.47-.23,3.81,0,10.29,7.51,20.12,17.78,20.91,2.76,.2,6.52,.69,9.68,.54,1.06-.06,2.06-.18,2.94-.4,2.79-.54,3.97-3.68,2.83-6.05-.36-1-.93-1.93-1.65-2.83-2.87-3.58-8.13-6.46-11.82-9.35,2.96,1.77,7.31,4.13,10.47,6.83,1.05,.9,1.97,1.84,2.67,2.81,3.45,3.33,.29,9.23-4.12,9.7-1.04,.33-2.17,.55-3.34,.67-3.5,.34-7.45-.15-10.81-.74-9.87-2.36-15.01-13.76-15.79-23.58,0-1.15,.12-2.21,.38-3.14,.26-.93,.65-1.74,1.2-2.38,2.25-2.59,5.57-3.31,9.26-2.73,1.23,.19,2.5,.53,3.79,1,8.51,3.99,16.63,9.27,23.4,15.86,.97,.94,1.91,1.91,2.82,2.9,4.56,6.56,17.2,17.96,10.49,21.89-5.13,3.15-15.01-3.54-22.79-.42-1,.36-1.99,.72-2.97,1.09-.97,.36-1.94,.72-2.91,1.09-1.47,.53-2.99,.91-4.54,1.14-6.05,.68-12.42-1.11-16.93-5.24-3.33-2.81-5.81-6.49-7.16-10.61l-.3-.33c-.13-1.41-.61-2.75-.84-4.14-.05-.8-.12-1.6-.21-2.4-.07-.78-.07-1.57,0-2.36,.04-.85,.13-1.7,.25-2.55,2.32-7.51-7.55-14.59-4.79-19.7,5.92-10.61,24.88-3.15,36.96-3.38,.96,.11,1.91,.25,2.85,.45s1.87,.44,2.79,.74c1.33,.56,2.68,1.05,3.98,1.66,2.43,1.5,5.02,2.82,7.08,4.84,1.93,1.55,3.6,3.39,4.96,5.45,.65,.7,1.17,1.49,1.63,2.32s.87,1.69,1.32,2.53c.44,1.17,.99,2.39,1.61,3.64s1.32,2.54,2.05,3.85c7.84,12.9,15.74,28.23,10.21,43.96-.39,1.18-2.37,1.18-3.16,.79-7.5-4.72-15.01-12.19-24.12-7.04-1.33,.87-2.72,1.66-4.16,2.35-1.68,.9-3.53,1.37-5.29,2.07-2.71,.95-5.58,1.3-8.4,1.74-2.81-.03-5.65,.32-8.44-.16-3.48-.64-7.03-1.24-10.27-2.75-2.87-.97-5.47-2.52-8-4.15-1.73-1.29-3.55-2.48-5.11-4-.89-1.06-1.97-1.94-2.83-3.02-.34-.23-.64-.52-.87-.86-.72-1.2-1.77-2.16-2.48-3.37-.6-.98-1.23-1.94-1.86-2.9-2.64-5.23-5.03-10.77-5.39-16.7,0-2.08-.63-4.13-.24-6.21,.11-1.38,0-2.75,.19-4.12,.02-.95,.13-1.87,.3-2.79s.39-1.82,.59-2.74c1.47-7.08-4.45-12.59-8.79-17.3-1.58-1.57-2.37-4.72,0-5.5,3.16-1.18,7.11-.79,10.32-2.15,1.16-.3,2.33-.58,3.5-.85,8.15-1.85,16.47-3.05,23.58-7.08,1.09-.43,2.2-.81,3.33-1.14,1.82-.83,3.81-1.13,5.73-1.64,2.4-.45,4.83-.71,7.27-.98,1.5-.14,3.01-.14,4.51,0,.96-.1,1.92-.1,2.88,0,2.21,.15,4.4,.57,6.51,1.26,1.11,.18,2.22,.34,3.31,.61,.7,.3,1.42,.52,2.17,.66l.3,.32c5.05,1.33,9.51,4.15,13.78,7.05,1.43,.92,2.63,2.13,3.95,3.21,4.34,3.54,7.5,8.19,10.66,12.74,.66,1.22,1.35,2.42,1.97,3.64,.81,1.49,1.24,3.15,2.07,4.63,.55,1.57,1.18,3.11,1.58,4.72,1.22,3.27,1.62,6.76,2.11,10.2,.12,1.29-.02,2.62,.21,3.9-.22,5-.11,10.53-.25,16.1-.03,1.39-.08,2.79-.15,4.19-2.33,14.12,3.59,36.53-9.83,42.03-5.13,2.36-9.48-11.4-17.65-10.38-.92,.21-1.78,.65-2.59,1.3-1.39,.72-2.81,1.43-4.2,2.2-4.15,1.61-8.29,3.39-12.7,4.22-2.32,.31-4.61,.79-6.92,1.1-1.31,.12-2.63,0-3.92,.21-2.84,.17-5.7,.15-8.54,.05-5.99-.68-12.01-1.79-17.61-4.08-2.01-1.08-4.32-1.55-6.19-2.91-2.28-1.09-4.48-2.31-6.61-3.67-.71-.45-1.41-.92-2.1-1.39-5.37-3.55-9.71-8.27-14.03-13.42-.71-.69-1.05-1.64-1.36-2.55l-.56-.07c-1-1.3-1.67-2.8-2.52-4.19-.33-.19-.57-.51-.66-.87-.71-.79-.52-1.88-.36-2.84-.31-.07-.65-.13-.73-.49l-.48,.15c-.26-.64-.77-1.14-1.06-1.76-.31-.79-.56-1.61-.86-2.4-.6-1.18-1.34-2.36-1.45-3.74l-.35-.29c-.31-1.85-1.21-3.54-1.58-5.37-.29-1.2-.58-2.4-.86-3.6s-.54-2.41-.76-3.62c-1.04-3.7-.65-7.63-.78-11.23,0-.82,.02-1.65,.05-2.47,.05-1.24,.13-2.47,.24-3.7,.63-3.2,.24-6.34-1.34-9.1h.79c-3.16-5.9-15.8-11.79-9.08-18.87-.39,0-.79,.39-1.18,.39,7.5-5.11,16.98-6.29,24.31-11.02,.86-.52,1.71-1.05,2.54-1.6,1.66-1.09,3.24-2.24,4.6-3.56,.65-.71,1.29-1.42,2.04-2.01,2.51-2.26,5-4.56,7.73-6.57,.79-.49,1.56-1.02,2.32-1.55s1.52-1.08,2.29-1.61c27.22-17.29,63.56-6.67,89.23,7.48,0-.39-.39-.79-.39-1.18,22.91,20.84,44.23,53.07,36.33,85.31-3.25,12.86-9.17,24.13-17,33.68-.98,1.19-1.99,2.36-3.02,3.51-9.2,8.81-10.78,25.32-24.21,27.68-5.92,1.18-12.24-4.32-18.28-.15-1.48,.52-2.97,1.01-4.47,1.47-19.52,5.96-40.8,6.88-60.58,2.22,1.58,1.18,3.55,.79,5.53,1.57-5.66-1.7-11.36-3.63-16.91-5.91-1.39-.57-2.76-1.17-4.18-1.85-14.06-7.96-28.28-17.79-36.42-31.87-.76-1.26-1.5-2.55-2.22-3.86-10.7-19.7-14.62-42.99-16.11-65.4-.3-4.3-.17-8.64,.33-12.96,.17-1.44,.38-2.88,.62-4.31,1.02-7.1,3.39-14.17,6.65-20.92,.62-1.34,1.28-2.66,1.97-3.97,4.84-9.15,11.27-17.48,18.83-24.29,1.08-.97,2.18-1.91,3.33-2.82,2.62-1.89,5.78-3.46,8.54-5.03h-2.76c6.52-3.15,12.34-6.98,18.02-11.16,1.14-.84,2.26-1.68,3.39-2.54,1.89-1.63,3.86-2.81,6.23-3.2,10.66-1.57,25.28,2.36,31.59-9.83,1.58-2.75,5.53-2.36,8.74-2.51m-61.34,29.43,87.51,68.74c.22,.57,.74,.98,1.35,1.07-.23-.36-.48-.7-.69-1.07h-.66m-66.58,16h0m-16.29,29.83h0m-6.56,45.49"/><path class="cls-6" d="M212.24,93.81c1.11,.29,2.27,.55,3.47,.8s2.43,.48,3.67,.7c12.39,2.19,25.17,3.25,36.06,9.63,.92,.6,1.8,1.24,2.65,1.93s1.66,1.43,2.45,2.21c4.34,4.72,9.48,7.86,15.8,9.44,3.55,1.18,5.92,4.32,7.6,7.96,.59,1.03,1.21,2.04,1.9,3.01s1.46,1.9,2.34,2.79c4.34,4.32,10.27,7.08,13.37,12.65,.72,1.34,1.36,2.72,1.96,4.13,1.8,4.23,3.22,8.73,4.22,13.49,.32,1.16,.66,2.31,1,3.47,.34,1.16,.66,2.31,.93,3.49,.85,1.97,1.1,4.12,1.58,6.19,.55,2.54,1.2,5.04,1.7,7.6,.3,2.1,.46,4.23,.79,6.33,.14,1.73,.13,3.48,.44,5.19,.13,1.36-.04,2.75,.21,4.11,.08,1.19,.13,2.38,.13,3.57s-.04,2.38-.13,3.57c-.71,6.61-1.34,13.26-2.19,19.85-.17,1.32-.35,2.63-.54,3.95-.16,10.14-8.46,17.22-11.22,26.65,3.16-8.65,9.48-16.12,9.81-25.39,.15-1.48,.29-2.96,.4-4.44,.91-11.86,.54-23.87-.92-35.72-.16-1.03-.34-2.06-.54-3.09-1.17-6.16-2.92-12.21-4.99-18.13-.54-1.21-1.04-2.45-1.54-3.68-.49-1.24-.97-2.47-1.46-3.7-1.06-2.98-2.29-5.86-3.66-8.64-.69-1.39-1.41-2.75-2.18-4.09-5.01-5.45-10.29-10.46-15.19-15.78-.82-.89-1.63-1.78-2.42-2.65-2.19-2.45-4.16-4.81-6.93-5.99-7.11-2.95-12.22-8.77-18.41-12.95-1.03-.7-2.09-1.35-3.2-1.93-9.48-4.45-19.68-6.55-29.94-7.79-1.47-.18-2.93-.34-4.37-.48-17.14-1.22-33.73,4.68-50.1,9.94-1.32,.61-2.64,1.24-3.95,1.89-10.5,5.21-20.63,11.68-30.23,18.79-3.85,2.85-7.21,6-10.13,9.4-.97,1.13-1.89,2.29-2.76,3.48-11.99,9.54-19.1,21.72-12.84,36.56-.05,1.48-.13,2.95-.17,4.43-.41,14.8,2.63,30.03,7.73,43.63,7.9,21.23,27.64,33.81,47,44.42,19.66,11.18,43.37,10.56,64.21,3.93,1.3-.41,2.59-.85,3.88-1.3,6.16-3.42,10.9,6.02,15.24,4.44,13.82-4.32,12.24-23.98,18.56-36.03,.61-1.4,1.21-2.75,1.79-4.11,4.02-9.54,6.64-19.9,8.49-29.84,3.55-18.48-5.53-37.35-18.17-51.5-15.4-16.12-37.52-27.52-60.21-25.08-1.51,.26-3.03,.47-4.54,.75s-3,.62-4.45,1.13c-4.88,1.26-9.59,3.11-14.02,5.5-1.73,.71-3.2,1.89-4.87,2.72-.86,.63-1.72,1.26-2.58,1.89s-1.72,1.27-2.56,1.92c-2.55,2.04-5.41,3.45-8.41,4.65-1,.4-2.02,.77-3.05,1.14-8.25,4.18-23.26,1.83-23.65,9.29-.39,9.83,16.98,16.51,11.91,30.01-.06,.89-.08,1.79-.13,2.69-.21,.18-.39,.39-.61,.58,.82,.39,.52,1.5,.68,2.24l-.75,.07c.13,.22,.28,.44,.44,.66,.69,2.52,.75,5.15,1.26,7.71,.13,2.15,1.12,4.11,1.47,6.23l.32,.31c.56,2.36,1.37,4.65,2.42,6.84-.28,.33-.73,.04-1.08,.07,.28,.43,.82,.6,1.3,.41,1.18,2.24,2.31,4.54,3.78,6.62,2.01,2.91,4.1,5.82,6.67,8.26,.75,.91,1.58,1.74,2.48,2.5,1.92,2.1,4.41,3.54,6.64,5.28,3.32,2.07,6.75,4.05,10.44,5.39,2.82,1.01,5.64,2.08,8.57,2.72,2.24,.68,4.61,.74,6.91,1.1l4.16,.2c1.73,.2,3.47,.13,5.18-.2,3.08-.36,6.23-.49,9.21-1.45s6.12-1.73,8.94-3.2c1.31-.59,2.54-1.31,3.76-2.06,1.22-.75,2.42-1.53,3.71-2.11,8.95-3.43,14.87,10.73,19.61,9.15,11.85-4.72,6.32-27.52,4.14-41.04-.27-1.38-.56-2.74-.85-4.09-.86-4.05-1.73-8-2.13-11.55-.15-1.06-.33-2.09-.54-3.12-1.29-6.16-3.87-12-7.6-17.13-1.46-1.57-2.65-3.4-4.11-4.98-.47-.4-.91-.82-1.32-1.28-3.42-3.47-7.64-6.05-12.03-8.14-.67-.4-1.39-.7-2.15-.88l-.32-.3c-1.8-.35-3.48-1.18-5.29-1.45-3.5-.91-7.12-1.3-10.74-1.16-1.75-.07-3.48,.11-5.19,.39-.86,.14-1.71,.31-2.57,.49-11.24,4.16-25.47,.75-34.26,6.91-.99,.69-1.91,1.5-2.77,2.44-2.71,3.14,1.24,5.89,2.23,8.95,.77,1.18,1.56,2.41,2.21,3.7,1.31,2.57,2.12,5.34,1.23,8.24-.38,1.53-.67,3.08-.75,4.66-.25,3.85-.13,7.78,.82,11.54,.56,2.08,1.06,4.24,2.03,6.18,.97,2.75,2.74,5.11,4.42,7.5,.56,.87,1.37,1.52,1.97,2.36,1.26,1.71,3.21,2.7,4.61,4.28l.53,.12c1.14,.91,2.46,1.55,3.63,2.43,.74,.31,1.49,.57,2.26,.79l.54,.52c.41,.08,.82,.18,1.22,.31,5.65,1.73,11.66,2.56,17.53,1.6,2.76-.75,5.66-1.2,8.14-2.69,1-.51,1.99-1.07,2.98-1.68,8.44-6.92,17.13,2.51,25.42,5.26,1.97,.39,3.16-1.18,3.16-2.75,1.18-12.58-3.95-24.37-12.03-33.7-.99-1.16-2.03-2.29-3.09-3.4-4.22-4.44-8.76-8.57-12.01-11.94-.71-.46-1.45-.88-2.23-1.27-10.54-4.72-22.38-7.47-34.23-6.69-1.97,.39-4.74,1.57-3.95,3.93,2.47,4.91,4.17,9.98,5.16,15.22,.2,1.05,.37,2.1,.52,3.17,.64,4.81,.24,9.92,3.68,13.89,.61,.91,1.3,1.74,2.05,2.47,1.49,1.48,3.23,2.61,5.12,3.39,.94,.39,1.92,.7,2.93,.91,3.96,.39,7.88,.03,11.8-.66,1.31-.24,2.63-.52,3.95-.82,6.27-2.19,14.17,1.74,18.12-1.79,4.34-3.93-5.13-10.22-8.21-14.9-.87-.91-1.75-1.81-2.64-2.7-7.12-7.07-15.16-12.89-24.51-15.67-1.27-.13-2.53-.07-3.75,.22-1.22,.29-2.41,.81-3.55,1.6-1.45,.92-1.76,2.45-1.44,4.3,3.42,10.25,9.34,21.65,21.58,20.47-11.85,2.36-19.35-9.04-21.71-19.33-.23-1.02-.36-2.01-.37-2.99-.01-.97,.1-1.92,.36-2.84,.66-1.97,2.24-2.66,4.24-2.62,1,.02,2.11,.23,3.26,.56,8.52,3.5,20.67,9.1,28.3,15.82,1.09,.96,2.09,1.94,2.97,2.95,3.48,4.53,8.62,12.78,3.88,16.71-5.13,3.93-12.64,0-19.02,1.91-1.36,.22-2.72,.48-4.02,.78-1.3,.3-2.56,.65-3.73,1.07-1.23,.17-2.47,.21-3.69,.12-2.44-.18-4.81-.89-6.86-2.15-1.28-.85-2.82-1.49-3.76-2.75-2.15-1.84-3.84-4.16-4.94-6.77-1.23-2.14-1.54-4.65-1.8-7.08-.11-.86-.11-1.74-.02-2.62,1.64-8.06-7.45-15.92-4.29-21.03,6.32-10.61,25.67-1.57,38,1.15,1.2,.48,2.37,1.05,3.49,1.69,1.87,1.07,3.61,2.36,5.18,3.83,.78,.73,1.53,1.51,2.22,2.34,1.28,2.29,3,4.67,4.86,7.1,.93,1.22,1.9,2.45,2.86,3.69,4.2,4.96,8.15,10.46,10.13,16.75,2.37,7.08,7.11,20.84,0,22.02-8.69,1.57-18.17-12.58-27.77-3.26-.86,.59-1.81,1.02-2.78,1.41s-1.96,.72-2.92,1.12c-2.42,.73-4.91,1.24-7.43,1.51-2.76,.1-5.57,.31-8.31-.18-1.97-.21-3.9-.85-5.83-1.34-.93-.28-1.83-.62-2.71-1.03,.06-.2,.13-.39,.2-.58-.82,.11-1.65-.05-2.37-.45-4.36-2.02-8.24-4.92-11.42-8.51-1.33-1.3-2.49-2.77-3.45-4.37-1.16-1.79-2.18-3.67-3.04-5.62-1.05-2.12-1.6-4.45-2.39-6.68-.26-1.86-.58-3.72-.91-5.56,.18-1.55-.15-3.12-.04-4.67,.26-.17,.49-.37,.69-.6l-.74-.33c.25-1.81,.38-3.64,.87-5.41,.16-.83,.33-1.66,.46-2.51,.09-1.27-.05-2.45-.33-3.58-.29-1.13-.73-2.2-1.25-3.23-2.23-4.32-9.74-11.79-3.08-15.72,.8-.34,1.68-.62,2.62-.84,2.76-.64,6.12-.74,8.49-1.13,7.9-1.57,15.4-1.97,22.67-5.37,1.39-.49,2.81-.81,4.24-1.08s2.88-.49,4.3-.79c2.71-.18,5.44-.2,8.15-.05,4.12,.08,8.13,1.26,12.03,2.47,2.17,.66,4.12,1.84,6.2,2.71,4.8,2.82,9.48,6.05,13.09,10.31,1.48,1.53,2.58,3.35,3.83,5.05,2.61,3.52,4.46,7.51,5.92,11.63,.79,1.97,1.15,4.05,1.7,6.09,.29,1.57,.56,3.17,.75,4.77,.11,3.74,.71,8.2,1.28,12.83,.19,1.55,.37,3.11,.54,4.68,.6,13.19,6.52,35.2-6.12,40.7-5.13,1.97-11.85-13.37-20.71-8.01-.71,.44-1.43,.86-2.16,1.27s-1.46,.81-2.19,1.21c-6.12,3.12-12.79,5.06-19.64,5.72-.88,.08-1.75,.08-2.61,.22-1.73,.07-3.5,.29-5.21,0-1.31-.13-2.62-.03-3.92-.2-4.03-.32-7.99-1.18-11.79-2.54-3.16-.79-6.18-2.19-9.05-3.75-4.92-2.32-9.31-5.6-13.32-9.23-.33-.19-.16-.55-.13-.85-.18,.07-.36,.13-.53,.21-2.2-2.08-4.21-4.35-6-6.78-.68-.42-.95-1.24-1.4-1.85-2.07-2.88-3.85-5.94-5.34-9.15-.18-.64-.44-1.26-.77-1.85-1.3-2.07-1.65-4.53-2.51-6.79-.86-2.69-1.51-5.44-1.95-8.22-.03-.26,0-.53,.08-.79-.2-.54-.47-1.13-.39-1.71-.12-1.77-.5-3.54-.32-5.31-.17-1.27-.14-2.54-.05-3.8s.22-2.53,.25-3.8c.68-4.38,.28-8.7-2.08-12.24-3.16-5.11-12.64-7.08-11.06-12.58,2.37-9.04,16.19-7.47,23.57-12.81,1.26-.61,2.6-1.16,4-1.65,1.4-.49,2.88-.91,4.42-1.26,.79-.39,1.58-1.57,2.51-2.16,.81-.69,1.6-1.37,2.4-2.03,4.01-3.32,8.39-6.19,13.04-8.57,1.7-.74,3.38-1.54,5.06-2.31,.84-.29,1.68-.59,2.52-.9s1.67-.61,2.51-.91c24.09-8.28,48.58,1.95,68.72,16.88,20.93,15.73,31.99,42.06,28.83,66.83-1.35,10.56-5.93,19.83-11.89,28.56-.74,1.09-1.51,2.17-2.29,3.25-6.35,9.07-7.14,20.08-13.46,29.91-2.37,3.15-5.13,7.47-9.08,5.9-4.74-1.57-9.48-5.5-14.7-2.26-1.32,.52-2.66,1-4.01,1.44-16.25,5.26-34.68,4.59-51.98,.82-19.75-3.93-34.36-17.69-48.58-30.66v.79c-17.12-18.04-22.83-43.76-21.97-68.45,.05-1.45,.12-2.9,.22-4.34-2.34-14.09,1.22-27.85,11.12-38.48,.77-1.31,1.59-2.6,2.44-3.86,5.45-8.06,12.48-14.95,20.94-19.71,1.06-.59,2.14-1.15,3.25-1.69,1.38-.28,2.17-1.06,3.36-1.46v1.18c4.34-3.15,9.08-5.11,14.22-7.08,0,.39-.39,.79-.39,1.18,.99-.85,1.99-1.69,3-2.52,1.01-.82,2.04-1.63,3.09-2.41,12.47-6.08,26.69-5.3,39.32-13.16,3.55-1.97,7.9-1.57,12.12-.74m-24.87,38.85-11.57,57.58-40.2,5.62c-.33,.66,.7,.04,0,0m-.87,1.29c-.33,.66,.7,.05,0,0m32.17,53.19c-.23,.31,.31,.58,.53,.34s-.32-.57-.53-.34"/><path class="cls-6" d="M211.97,105.84c9.48,.48,18.56,3.63,27.59,6.55,1.09,.43,2.19,.87,3.27,1.34,1.09,.47,2.17,.95,3.24,1.45,1.34,.63,2.67,1.31,3.98,2.13,7.72,5.52,15.62,10.63,22.79,16.67,.84,.82,1.67,1.65,2.49,2.5,4.94,5.06,9.68,10.23,14.41,15.38,.84,1.21,1.66,2.44,2.45,3.68,1.58,2.48,3.06,5.03,4.42,7.64,.65,1.32,1.27,2.65,1.86,4,8.31,19.09,10.14,40.96,8.25,62.39-.13,1.43-.27,2.85-.43,4.28-5.08,13.61-7.45,31.69-20.48,40.34v-.79c-5.33,6.19-11.77,10.39-17.49,16.09-.95,.95-1.89,1.94-2.79,2.99-6.96,10.8-18.02,16.7-30.33,20.04-1.15,.37-2.3,.73-3.44,1.1-.82,.26-1.65,.51-2.48,.73-1.66,.46-3.34,.86-5.01,1.27-5.27,1.34-10.66,2.1-16.05,2.81-.88,.07-1.75,.09-2.61,.21-1.02,.02-2.03,.1-3.04,.23-4.48,.26-8.98,.04-13.46,0-1.35-.06-2.7-.16-4.04-.31s-2.68-.34-4.01-.57c-.86-.1-1.72-.21-2.57-.33s-1.71-.25-2.56-.4c-1.7-.29-3.4-.62-5.09-.99-.64-.04-1.26-.24-1.8-.58-.07-.3-.15-.6-.24-.88l-.45,.27,.2,.44c-2.94-.48-5.78-1.33-8.62-2.22-.95-.3-1.89-.6-2.83-.9-2.01-.88-4.38-1.28-5.96-2.85,1.58,0,2.76,1.18,4.31,1.42,1.31,.35,2.61,.65,3.91,.92,2.27,.65,4.66,.69,6.95,1.29,1.3,.37,2.63,.58,3.92,.73,18.14,3.5,35.93,1.85,52.39-3.65,1.5-.5,2.98-1.03,4.46-1.59,15.28-4.63,29.5-12.88,39.98-25.11,1.17-1.08,2.32-2.18,3.45-3.31,3.05-3.03,5.95-6.2,8.7-9.49,.92-1.1,1.81-2.21,2.69-3.34,6.27-7.8,10.62-16.45,15.48-25.26,.61-1.31,1.13-2.6,1.6-3.9,9.39-26.11,2.54-59.08-16.42-81.7-.99-1.19-2.02-2.34-3.08-3.47-5.92-3.54-9.87-9.43-14.92-13.85-.89-1.03-1.81-2.04-2.75-3.04-1.01-1.07-2.05-2.13-3.11-3.16-2.13-2.35-4.5-3.93-6.67-5.92-1.16-.94-2.34-1.84-3.55-2.71-12.05-8.66-26.33-13.79-41.67-10.63-1.23,.2-2.45,.39-3.65,.57-8.41,1.3-16.14,2.33-24.78,3.36-18.93,3.19-36.04,12.88-47.72,27.57-.9,1.13-1.76,2.29-2.64,3.48-4.15,5.9-11.25,7.08-16.78,11.4-1.97,1.97-3.55,4.72-3.16,7.47,1.58,6.29,6.71,10.61,6.51,16.84-.14,1.4-.27,2.8-.37,4.2-1.19,16.77,2.79,33.84,12.03,48.94,18.96,31.45,58.45,45.6,92.81,31.84,2.17-.79,4.54-.39,6.91-.05,1.18,.17,2.38,.38,3.57,.55,5.32,.68,10.06,6.97,13.61,5.39,14.22-5.9,9.87-28.31,15.32-41.9,.41-1.49,.78-3,1.13-4.51,1.72-7.56,2.69-15.26,3.3-22.38,2.76-31.84-23.7-61.72-55.97-65.17-.96-.03-1.92-.06-2.89-.09-4.82-.12-9.68-.05-14.38,1.08-3.55,.7-7.03,1.73-10.38,3.08-3.29,1.46-6.62,2.89-9.62,4.9-1.21,.81-2.58,1.42-3.76,2.38-2.42,2.11-6.28,3.23-10.33,4.17-1.35,.31-2.72,.61-4.07,.91-6.3,2.34-20.12,1.16-18.15,8.63,1.97,7.86,13.43,12.97,10.37,22.75-.17,1.35-.16,2.72-.46,4.05-.32,4.92-.03,9.87,.88,14.72,.97,5,2.73,9.8,5.22,14.25,.42,1.15,1.18,2.12,1.85,3.15,1.68,2.41,3.3,4.88,5.37,6.98,3.14,3.42,6.74,6.38,10.71,8.79,2.67,1.8,5.68,2.98,8.66,4.13,2.43,1.18,5.11,1.61,7.72,2.24,2.89,.36,5.77,.87,8.69,.87,1.54-.08,3.09-.08,4.64-.1,1.67-.12,3.31-.45,4.96-.69,1.67-.42,3.31-.92,5-1.29,2.83-.94,5.58-2.11,8.22-3.5l.36-.26c.27-.08,.54-.19,.79-.33,.97-.65,1.95-1.29,2.95-1.89,6.89-3.49,13.99,2.02,18.73,6.73,2.37,1.97,5.92,3.54,7.11-.39,3.95-15.73,0-31.06-5.5-45.44-.5-1.49-.98-2.95-1.41-4.38-.43-1.43-.8-2.82-1.08-4.18-.31-1.11-.68-2.2-1.12-3.27-1.69-5.04-4.86-9.39-8.23-13.44-2.21-1.99-4.2-4.28-6.84-5.74-1.2-.65-2.27-1.54-3.5-2.13-2.57-.99-5.06-2.26-7.76-2.88-1.26-.41-2.55-.71-3.85-.92-1.66-.53-3.42-.17-5.11-.46-1.51,0-3,.21-4.5,.26-11.5,3.93-35.2-3.15-36.38,8.65-.79,6.29,7.11,12.97,4.94,20.85-.16,1.21-.25,2.42-.26,3.64-.01,1.22,.05,2.44,.19,3.66,.2,4.92,2.05,9.63,4.6,13.8,1.35,2.19,3.04,4.16,5,5.83,.71,.74,1.64,1.26,2.24,2.11,2.19,1.24,4.31,2.65,6.71,3.48,7.07,2.89,15.37,2.61,22.23-.74,.98-.48,1.93-1.03,2.87-1.64,8.74-6.96,20.2,6.01,26.12,1.29,7.9-5.9-5.53-20.44-11.69-28.35-.93-1.06-1.87-2.1-2.83-3.1-6.73-7-14.41-12.41-23.87-15.68-1.15-.43-2.3-.83-3.47-1.17-5.83-1.72-11.85-2.21-17.77-.44-.39,.39-.79,1.18-.79,1.97,1.18,3.24,2.2,6.43,3.12,9.65,.31,1.07,.6,2.15,.89,3.23,1.53,5.6,1.13,11.5,4.69,16.21,4.34,6.09,11.75,8.16,18.86,7.62,1.43-.12,2.84-.33,4.23-.65,4.16-1.46,8.9-1.85,12.46-5.39,2.76-2.75,1.18-6.29-1.35-8.66-.75-.8-1.63-1.6-2.6-2.39-3.85-3.19-9.08-6.44-12.64-9.39-5.13-4.72-13.03-9.83-18.96-5.11-1.97,1.97,.39,6.29,1.97,9.04-3.16-3.54-5.13-11.4,1.18-11.4,9.95,.55,18.36,6.88,25.89,14,1.08,1.02,2.13,2.05,3.18,3.08,3.32,4.15,11.22,8.08,8.06,12.4-3.55,5.11-11.85,2.75-18.13,4.07-1.42,.17-2.84,.28-4.23,.32-12.57,.37-23.61-4.82-23.91-21.15-.43-1.27-.85-2.52-1.22-3.74-1.48-4.86-2.27-9.19-.69-12.14,3.55-6.37,12.51-4.95,21.56-1.38,1.51,.6,3.02,1.25,4.51,1.94,8.84,3.18,15.56,8.95,21.5,16.04,.85,1.01,1.68,2.05,2.5,3.14,6.01,8.56,13.9,17.21,13.9,28.61,0,2.75-2.76,3.54-5.13,3.15-7.9-2.36-16.19-9.04-23.96-3.43-1.24,.78-2.5,1.45-3.82,2.01-3.13,1.74-6.71,2.51-10.25,2.75-1.84,.13-3.69,.15-5.53,.06-1.82-.39-3.74-.49-5.46-1.26-1.27-.57-2.61-.95-3.84-1.57-.2-.24-.38-.49-.55-.75-1.42,.24-2.44-.83-3.62-1.37,0-.29-.03-.58-.04-.87-.27,.08-.54,.18-.79,.27,.07-.29,.14-.59,.2-.88-.36-.05-1-.48-.95,.17-.37-.17-.72-.37-1.06-.59-2.85-2.05-5.27-4.65-7.11-7.63-1.21-1.71-2.2-3.55-2.95-5.5-1.47-3.11-2.07-6.53-2.41-9.92-.14-2.43-.28-4.89,.32-7.27,.13-1.19,.33-2.36,.52-3.57,1.17-4.88-1.38-9.24-4.09-13.29-.54-.81-1.1-1.6-1.63-2.39-1.96-2.36-1.57-6.29,1.59-7.08,2.45-.63,4.9-1.12,7.34-1.52,9.79-1.61,19.55-1.83,29.17-4.22,1.06-.16,2.17-.04,3.23-.24,3.16-.33,6.28,.2,9.38,.63,1.58,.45,3.31,.47,4.72,1.34,1.65,.46,3.37,.93,4.77,1.97l.5,.13c.15,.51,.5,.67,.97,.39,1.94,.93,3.77,2.06,5.48,3.36,2.88,1.77,4.87,4.52,7.31,6.77,1.33,1.33,2.09,3.08,3.23,4.56,1,1.13,1.32,2.64,2.24,3.82,1.45,2.68,2.53,5.54,3.39,8.46,.29,.97,.55,1.95,.79,2.95,.13,1.1,.33,2.27,.58,3.49s.53,2.48,.85,3.79c3.33,15.81,14,39.4-.22,48.05-3.55,1.97-13.03-13.37-22.07-7.2-.71,.42-1.43,.83-2.15,1.24s-1.44,.81-2.15,1.24l-.5,.16c-1.04,.74-2.3,1.05-3.46,1.53-4.23,1.83-8.8,2.71-13.34,3.37-3.16,.83-6.43,.17-9.64,.32-4.26-.15-8.36-1.44-12.43-2.59-1.37-.88-3.04-1.06-4.46-1.82s-2.91-1.42-4.34-2.15c-2.12-1.24-4.1-2.69-6.16-4.02-2.88-1.97-5.27-4.55-7.73-7-1.63-1.92-3.12-3.95-4.62-5.97-.93-1.97-2.44-3.59-3.33-5.57-.66-1.39-1.45-2.75-1.84-4.23-.08-.08-.22-.24-.3-.33-.35-1.25-.81-2.47-1.36-3.64l.17-.32c-.58-.2-.59-1.05-.73-1.49-1.11-4.94-2.26-9.94-2.05-15.03,.03-.94,.05-1.89,.08-2.84,.03-.94,.06-1.89,.12-2.83,3.58-11.98-9.85-17.88-12.22-26.53-1.97-7.47,14.22-5.5,21.27-8.61,1.25-.4,2.48-.82,3.69-1.27,3.64-1.33,7.17-2.91,10.47-5.09,.91-.68,1.82-1.36,2.73-2.03,1.33-.76,2.53-1.77,3.97-2.34,.89-.68,1.87-1.23,2.91-1.64,1.08-.43,2.02-1.24,3.2-1.36,.18-.17,.36-.35,.54-.51,1.5-.47,2.9-1.22,4.42-1.66,1.81-.53,3.55-1.27,5.46-1.51,1.96-.55,3.97-.93,6-1.12,1.73,.13,3.42-.68,5.17-.43,1.33-.2,2.66-.22,4-.2,4.35,.63,8.69-.16,12.64,1.81l-.39,.39c8.29,.39,15.4,5.9,22.91,9.44h-.79c22.51,11.79,35.15,38.53,31.59,62.11-1.18,8.55-2.92,17.6-5.78,26.13-.48,1.42-.98,2.83-1.5,4.28-6.14,11.66-3.38,37.6-18.78,36.82-3.55-.39-8.69-6.68-14.16-3.91-1.39,.52-2.79,1.01-4.2,1.46-32.35,10.34-68.47,1.67-92.22-25.46l.39-.39c-16.78-15.07-21.78-38.33-21.83-60.45,0-1.47,.01-2.94,.05-4.41,.45-3.15-1.13-5.9-1.92-9.05l.39,.39c-1.18-1.18-1.18-3.15-1.97-4.32l.79,.79c-6.32-12.19,7.5-18.08,14.52-24.98,.99-1.2,1.89-2.39,2.84-3.56,17.07-21.08,47.22-31.8,74.55-36.94,1.44-.27,2.87-.52,4.29-.76,1.47-.5,2.99-.74,4.54-.88s3.14-.16,4.75-.19m-23.2,35.87l.7-.18c-.11-.24-.22-.48-.32-.72-.23,.24-.37,.57-.38,.9m43.04,7.5c-.15,.09-.43,.28-.57,.39l1.15,.25c-.05-.21-.25-.44-.59-.64m-112.73,15.38,179.97,25.68-36.34,24.53-126.64,38.37,55.09,21.55"/><path class="cls-6" d="M205.86,118.91c1.24-.08,2.49-.16,3.73-.24,1.25-.08,2.49-.15,3.75-.21,14.82-1.53,28.64,3.58,39.32,14.35,1.21,.99,2.4,1.99,3.59,3.01,30.78,26.57,53.55,64.48,37.47,102.98-5.54,12.8-13.46,24.5-23.11,34.56-1.07,1.12-2.16,2.22-3.28,3.3-10.34,15.21-25.34,23.86-42.96,26.96-1.45,.53-2.92,1.03-4.39,1.5-17.69,5.63-36.77,6.99-55.69,2.81-1.41-.26-2.8-.6-4.18-.97s-2.76-.76-4.15-1.11c-2.82-.61-5.19-1.4-7.56-2.97-15.01-8.65-27.25-19.26-42.26-27.52-5.92-3.54-8.29-10.22-11.49-16.31-.64-1.35-1.25-2.73-1.82-4.14-2.27-5.62-3.92-11.65-4.86-18.08-.79-5.11-5.53-8.65-7.11-13.76-.41-1.51-.79-3.03-1.12-4.59-2.83-15.06-2.83-30.79,.85-45.79,.37-1.49,.77-2.97,1.21-4.44,3.47-11.77,8.93-22.93,16.04-32.84-7.36,12.69-12.19,26.76-13.82,41.17-.16,1.44-.29,2.88-.39,4.3-.39,6.02,0,11.53,.43,17.44,.17,1.46,.38,2.91,.63,4.35,1.47,8.68,4.23,17.25,8.43,25.51,3.16,6.29,3.95,13.76,6.32,20.84,.66,1.57,1.36,3.1,2.08,4.62,.36,.76,.72,1.51,1.08,2.26,5.93,20.25,28.83,27.72,45.08,38.26,1.45,.56,2.88,1.09,4.29,1.6,4.25,1.54,8.39,2.97,12.24,4.37-1.18,0-2.37,.39-3.16-.79,13.43,1.18,26.46,4.72,39.89,1.97,6.09-1.24,12.11-2.79,17.98-4.68,1.47-.47,2.92-.97,4.37-1.48,3.71-1.3,7.27-2.88,11.21-1.7,15.8,4.32,22.51-14.15,30.98-23.14,1.06-1.11,2.1-2.15,3.11-3.2,11.11-11.58,19.13-26.03,22.38-43.64,6.71-38.13-19.35-78.63-52.92-91.99-26.46-10.22-61.21-16.12-85.7,5.02-.93,.74-1.83,1.53-2.68,2.37l-.53,.11c-.46,.56-.96,1.07-1.5,1.54-1.01,.91-1.97,1.86-2.92,2.83-2.35,1.36-4.51,2.87-6.49,4.51-.66,.55-1.29,1.11-1.91,1.68-5.69,6.7-15.17,7.09-21.49,12.99-7.11,6.29,4.74,12.58,7.5,18.87,.79,1.18,0,2.75,.72,3.93,.1,1.59,0,3.07-.08,4.56-1.37,26.72,10.22,53.54,33.39,66.99,.76,.44,1.52,.86,2.27,1.29s1.5,.86,2.24,1.32l.54,.11,.28,.37,.58,.06c.08,.08,.23,.25,.3,.33,1.67,.47,3.16,1.38,4.81,1.93,3.48,1.63,7.25,2.46,10.97,3.34,1.95,.51,3.95,.81,5.96,.9,.63,.04,1.31,.12,1.95,.21,.66,.04,1.32,.12,1.97,.25,2.76-.04,5.51,.27,8.23-.24,2.61-.19,5.26-.26,7.82-.88,2.09-.54,4.28-.65,6.28-1.53,2.23-.66,4.41-1.43,6.55-2.31,1.07-.44,2.12-.91,3.16-1.38,.79-.43,1.61-.77,2.45-1.04,.84-.27,1.7-.47,2.56-.62,8.41-.55,13.93,11.24,18.67,9.27,13.43-5.9,8.29-28.31,11.16-42.27,.15-1.47,.27-2.95,.37-4.43,.47-7.4,.32-14.77,.32-20.91-.39-20.05-13.43-39.71-32.49-47.95-1.4-.74-2.87-1.29-4.36-1.8s-3-.97-4.47-1.51c-2.26-.64-4.6-.88-6.9-1.34-1.02-.13-2.04-.03-3.04-.22-1.7-.26-3.46,.16-5.13-.28-.54,.1-1.07,.18-1.6,.29-5.18,.08-10.27,1.25-15.14,2.88-1.05,.4-2.1,.84-3.13,1.29s-2.06,.94-3.08,1.46c-5.95,3.68-12.5,4.91-19.08,6.27-1.32,.27-2.64,.55-3.97,.86-4.24,1.9-13.72-.06-12.93,5.44,.79,8.26,13.03,13.37,9.19,22.9-.17,1.07-.31,2.14-.51,3.2-.16,1.94-.21,3.89-.22,5.83-.01,5.49,1,10.94,2.98,16.06,.2,.49,.34,1.01,.43,1.53l.33,.3c.03,.13,.09,.39,.12,.53,.9,1.69,1.75,3.42,2.68,5.11,1.78,2.66,3.72,5.2,5.82,7.61,1.56,1.47,3.22,2.84,4.74,4.36,3.12,1.97,6.11,4.23,9.56,5.62,4.76,2.06,9.83,3.29,15.01,3.65,1.65,.07,3.34,.24,5,0,2.96-.12,5.86-.72,8.76-1.25l.31-.32c2.32-.62,4.57-1.47,6.73-2.51,1.08-.52,2.13-1.09,3.15-1.71,8.45-5.67,17.54,1.01,24.25,6.52,1.18,.79,2.76,.79,3.16,0,7.11-15.73-.79-32.63-8.24-46.37-.69-1.43-1.34-2.84-1.91-4.22-.57-1.37-1.06-2.71-1.43-4.01-.37-.88-.78-1.74-1.22-2.59-.88-1.69-1.91-3.29-3.18-4.73l-.13-.49c-.88-.64-1.49-1.55-2.21-2.36-1.58-1.56-3.29-2.99-5.1-4.28,.05-.18,.11-.37,.17-.54l-.59-.48c0,.11,0,.33-.02,.44-.5-.11-.98-.28-1.43-.52-1.18-.96-2.71-1.31-4.04-2.02-2.66-.93-5.4-1.61-8.18-2.04-.25-.07-.49-.17-.72-.28-.75,.05-1.51,.06-2.26,.03-10.84-1.05-21.11-.26-31.77,.13-4.74,0-8.29,3.93-5.13,8.26,3.55,4.72,6.32,10.22,4.98,16.21-.1,.54-.08,1.19-.21,1.74-.15,2.39-.23,4.82,.19,7.19,.31,1.29,.52,2.6,.89,3.87,.93,2.74,2.3,5.32,4.05,7.63,2.28,3.24,5.6,5.57,9.1,7.36,3.23,1.46,6.71,2.31,10.25,2.51,.74-.08,1.5-.11,2.24-.21,1.82,.07,3.55-.63,5.3-1.02,.94-.35,1.86-.75,2.74-1.21,8.65-6.72,18.13-1.22,27.61,.74,2.37,.39,2.37-2.75,1.97-4.32-2.37-8.26-7.9-14.55-13.44-20.98-.91-.98-1.86-1.92-2.82-2.84-6.78-6.42-14.84-11.41-23.56-15.05-1.06-.41-2.12-.78-3.19-1.09-3.2-.95-6.5-1.47-9.91-1.32-1.58,.39-4.34,.79-3.95,2.75,.2,1.08,.41,2.15,.65,3.21s.48,2.11,.74,3.15c.14,15.58,10.62,25.22,23.68,25.75,1.46,.05,2.95,0,4.46-.19,3.25-.07,6.41-1.25,9.57-2.04-2.76,.79-5.53,1.97-8.31,2.48-1.38,.32-2.74,.55-4.11,.69-12.16,1.2-23.69-4.85-25.38-19.29-.38-1.28-.68-2.55-.91-3.79-.67-3.71-.63-7.18,.4-9.98,1.18-3.54,4.48-4.42,8.62-3.81,1.38,.2,2.85,.57,4.37,1.06,9.51,4.04,22.35,10.4,30.58,18.33,1.03,.99,1.99,2.01,2.86,3.08,4.52,7.29,13.6,21.84,6.89,25.37-6.32,3.15-17.77-7.47-25.74-.15-1.37,.83-2.95,1.18-4.38,1.9-1.31,.46-2.71,.64-4.06,.94-1.77,.1-3.55,.12-5.32,.06-2.37-.28-4.7-.88-6.91-1.79l-.33-.29c-3.76-.88-6.77-3.54-9.67-5.96-2-2.26-3.73-4.74-5.13-7.41-2.27-4.62-3.25-9.77-2.83-14.9,.03-1.04,.18-2.07,.37-3.1,2.39-7.44-6.3-13.73-5.11-19.23,2.37-11.4,23.3-4.32,34.16-7.36,1.67,0,3.3-.09,4.9-.08s3.21,.15,4.77,.56c1.54,.37,3.16,.44,4.66,.97,1.03,.25,1.97,.81,2.95,1.18,2.03,.73,3.83,1.93,5.72,2.95,2.52,1.84,5.09,3.7,7.11,6.11,2.04,1.93,3.5,4.35,5.01,6.68,.56,.98,1.08,1.98,1.55,2.99s.9,2.05,1.29,3.1c.27,1.1,.63,2.25,1.04,3.45,.41,1.2,.87,2.45,1.37,3.72,5.63,15.03,17.87,37.04,4.05,46.48-5.13,3.15-15.01-12.19-24.81-4.6-1.1,.78-2.29,1.4-3.55,1.86-4.46,2.33-9.45,3.47-14.4,4.25-3.04,.11-6.1,.18-9.14,0-1.28-.15-2.6-.14-3.83-.53-1.51-.54-3.16-.58-4.66-1.18-1.13-.53-2.39-.75-3.53-1.24-2.69-1.14-5.53-2.1-7.93-3.78-.62-.46-1.37-.81-1.76-1.5-1.29-.37-2.28-1.31-3.34-2.08-1.76-1.34-3.37-2.87-4.79-4.56-.03-.13-.09-.39-.12-.51-2.05-.97-3.1-3.2-4.38-4.96-1.5-1.72-2.44-3.81-3.51-5.79l-.18-.48c-2.16-4.19-3.38-8.79-4.34-13.37-.58-3.68-.76-7.41-.53-11.13h.62c-.23-.48-.43-.96-.6-1.46,.05-.9,.14-1.79,.26-2.68,4.48-10.33-8.16-15.83-8.95-24.09-.79-6.29,9.48-5.9,14.82-7.42,.79-.16,1.6-.3,2.42-.45,5.68-.99,11.86-1.87,15.46-5.16,1-.58,1.93-1.14,2.88-1.67,1.89-1.07,3.84-2.03,5.79-2.96,2.5-1.21,5.21-1.91,7.84-2.79,1.76-.44,3.55-.75,5.32-1.18,4.54-.53,9.11-1.04,13.69-.63,2.08,.16,4.16,.43,6.21,.82,1.02,.19,2.05,.41,3.07,.66,24.78,5.45,43.74,28.64,45.32,53.41,.69,9.46,.02,18.84-2.07,27.96-.3,1.3-.63,2.6-.98,3.9-4.84,14.14,.29,35.76-13.92,42.44-3.55,1.97-7.5-6.68-13.43-8.65-.79-.39-1.97,0-2.76,.4-1.4,.49-2.81,.95-4.24,1.38-32.78,9.88-71.98,3.2-90.15-26.93,.39,.39,.39,1.18,.39,1.18-10.47-13.76-15.7-31.06-15.52-48.02,.02-1.54,.08-3.08,.18-4.62-.46-1.61,.72-3.18,.33-4.76-1.58-7.86-13.82-15.73-4.34-22.8,5.92-3.93,13.03-5.11,17.82-10.37,.99-1.2,1.97-2.36,2.99-3.49,1-.89,2.07-1.76,3.2-2.57,.7-.77,1.37-1.53,2.07-2.27,.73-.86,1.52-1.66,2.32-2.45s1.62-1.57,2.41-2.39c16.58-15.37,39.88-18.51,61.75-18.1m8.94,5.66c-.13,.19-.28,.38-.44,.55,.36,.07,.74,.03,1.06-.12-.21-.15-.41-.3-.61-.44m-89.58,39.81-3,10.44,2.79,1.5,23.27,19.02c.04,.7,.67-.33,0,0m109,10.63c-.25,.6,.15,.99,.93,.6,0-.39,0-.79-.94-.6m-108.57,7.79h0m26.95,26.73c.31,.09,.42-.02,.33-.33-.29-.07-.4,.04-.33,.33m-40.26,.86-48.76-10.3c-.33,.71,.06,.73,.34-.03,.4-.73-.04-.65-.34,.03m54.27,16.43s-.37,.37-.37,.37c.79,0,1.18,.39,1.97,.39-.39-.39-1.18-.79-1.58-.76m15.87,57.87c.19,.2,.7,0,.53-.31-.19-.15-.64,.05-.53,.31"/><path class="cls-6" d="M97.92,135.29c.11-.38,.1-.82,1.04-1.41-.1,.38-.46,.87-1.04,1.41"/><path class="cls-6" d="M189.13,182.74c7.97,3.19,15.19,7.81,21.52,13.66,.9,.84,1.79,1.7,2.66,2.58,2.21,1.68,3.39,4.04,5.37,6,.79,1.18,.79,5.11-1.97,4.72,.39,0,.79,0,1.18-.39,1.58-2.75-.79-5.11-2.36-7.04-.99-1.02-1.99-2.01-3-2.99-7.02-6.89-14.54-13.56-23.87-16.31,0,0,.39-.39,.47-.25"/><path class="cls-6" d="M299.91,258.25c.21-.19-.04,.69-.12,1.04-.2,.19-.09-.62,.12-1.04"/></g></svg>